<svg xmlns="http://www.w3.org/2000/svg" width="10" height="10" viewBox="0 0 10 10">
<defs>
    <style>
      .error-icon {
        fill: #fff;
        fill-rule: evenodd;
      }
    </style>
  </defs>
  <path class="error-icon" d="M1122.52,279l3.15-3.074a1.122,1.122,0,0,0-.82-1.926h0a1.187,1.187,0,0,0-.82.325l-3.02,2.951-3.03-2.951a1.187,1.187,0,0,0-.82-0.325h0a1.119,1.119,0,0,0-.81,1.926L1119.5,279l-3.15,3.074a1.119,1.119,0,0,0,.81,1.926,1.187,1.187,0,0,0,.82-0.325l3.03-2.951,3.02,2.951a1.187,1.187,0,0,0,.82.325,1.122,1.122,0,0,0,.82-1.926Z" transform="translate(-1116 -274)"/>
</svg>
