<svg xmlns="http://www.w3.org/2000/svg" width="25" height="25" viewBox="0 0 25 25">
<defs>
    <style>
      .reviews-icon {
        fill: #fff;
        fill-rule: evenodd;
      }
    </style>
  </defs>
  <path class="reviews-icon" d="M1214.12,810h15.63a3.124,3.124,0,0,0,3.12-3.125V803.75a1.04,1.04,0,1,0-2.08,0v3.125a1.044,1.044,0,0,1-1.04,1.042h-15.63a1.044,1.044,0,0,1-1.04-1.042V791.25a1.044,1.044,0,0,1,1.04-1.042h3.13a1.042,1.042,0,0,0,0-2.083h-3.13a3.124,3.124,0,0,0-3.12,3.125v15.625A3.124,3.124,0,0,0,1214.12,810ZM1236,786.042a1.043,1.043,0,0,0-1.04-1.042h-2.09a14.6,14.6,0,0,0-14.58,14.583v1.651l-2.82,2.821a1.041,1.041,0,1,0,1.47,1.474l2.82-2.821h1.66a14.572,14.572,0,0,0,10.89-4.914,1.038,1.038,0,0,0,.06-1.318l-1.53-2.083a0.031,0.031,0,0,1,.04-0.023h3.04a1.049,1.049,0,0,0,.96-0.641,14.563,14.563,0,0,0,1.12-5.6v-2.083Zm-2.08,2.083a12.336,12.336,0,0,1-.72,4.167h-2.32a2.128,2.128,0,0,0-2.13,2.129,2.1,2.1,0,0,0,.43,1.274l0.99,1.328a12.491,12.491,0,0,1-8.75,3.6h-1.05v-1.042a12.515,12.515,0,0,1,12.5-12.5h1.05v1.042Z" transform="translate(-1211 -785)"/>
</svg>
