<svg xmlns="http://www.w3.org/2000/svg" width="45.03" height="55" viewBox="0 0 45.03 55">
  <defs>
    <style>
      .cls-1 {
        fill: #fff;
        fill-rule: evenodd;
        opacity: 0.3;
      }
    </style>
  </defs>
  <path class="cls-1" d="M1238.22,190.33l1.01-1.744a0.991,0.991,0,0,0-.35-1.36c-0.12-.065-0.23-0.127-0.34-0.188a0.373,0.373,0,0,1-.07-0.038,12.862,12.862,0,0,0-3.92-1.31v-0.228c0-.091-0.01-0.181-0.01-0.271a0.2,0.2,0,0,1-.01-0.076,1.289,1.289,0,0,0-.02-0.2,0.283,0.283,0,0,0-.01-0.091,1.213,1.213,0,0,0-.02-0.189c0-.027-0.01-0.054-0.01-0.08-0.01-.089-0.03-0.177-0.04-0.264a0.013,0.013,0,0,0-.01-0.013c-0.01-.083-0.03-0.166-0.04-0.249a0.24,0.24,0,0,1-.02-0.082c-0.02-.06-0.03-0.121-0.05-0.181v0a10.238,10.238,0,0,1,3.1-.865,1.009,1.009,0,0,0,1.03-.972,0.983,0.983,0,0,0-.96-1.021,11.65,11.65,0,0,0-3.88,1c-0.01-.014-0.01-0.027-0.02-0.04s-0.03-.054-0.05-0.081a1.153,1.153,0,0,0-.08-0.156c-0.02-.026-0.03-0.051-0.05-0.077-0.04-.061-0.07-0.121-0.11-0.181l-0.03-.044-0.15-.217c-0.01-.021-0.03-0.042-0.04-0.064-0.04-.05-0.07-0.1-0.11-0.152l-0.06-.075a1.264,1.264,0,0,0-.11-0.142c-0.02-.023-0.03-0.046-0.05-0.069-0.05-.063-0.11-0.125-0.16-0.187,0,0-.01-0.01-0.01-0.015q-0.09-.1-0.18-0.195l-0.06-.062a1.456,1.456,0,0,0-.13-0.131l-0.06-.067c-0.05-.044-0.09-0.087-0.14-0.129l-0.06-.057c-0.06-.059-0.13-0.118-0.2-0.175l-0.03-.026c-0.06-.049-0.12-0.1-0.18-0.145a0.428,0.428,0,0,0-.07-0.056,0.558,0.558,0,0,0-.08-0.063,0.383,0.383,0,0,0,.07-0.057c0.02-.021.05-0.043,0.07-0.064l0.09-.087c0.03-.022.05-0.045,0.08-0.069s0.05-.059.08-0.089a0.469,0.469,0,0,0,.07-0.072l0.09-.094,0.06-.075a0.7,0.7,0,0,0,.08-0.1c0.02-.025.05-0.05,0.07-0.076a0.81,0.81,0,0,1,.08-0.108,0.322,0.322,0,0,1,.05-0.074,0.865,0.865,0,0,0,.08-0.124c0.02-.022.03-0.043,0.05-0.065l0.12-.194c0.05-.086.09-0.173,0.14-0.26l0.03-.067,0.09-.208,0.03-.064,0.09-.236c0.01-.011.01-0.023,0.02-0.034a5.426,5.426,0,0,0,.22-0.876v-0.047a2.116,2.116,0,0,0,.04-0.247v-0.056a2.787,2.787,0,0,0,.02-0.288v0a3.417,3.417,0,0,1,1.83.45,3.273,3.273,0,0,1,1.07.98,0.992,0.992,0,0,0,1.18.341,3.409,3.409,0,0,1,4.24,4.888,3.356,3.356,0,0,1-.77.923,1,1,0,0,0-.36.695,0.988,0.988,0,0,0,.25.735,3.443,3.443,0,0,1,.39,4.015,3.488,3.488,0,0,1-2.81,1.731m-24.43,26.357-7.31-4.2a16.61,16.61,0,0,0,5.53-1.164s0,0,.01,0a0.07,0.07,0,0,0,.01.044l0.03,0.184a2.1,2.1,0,0,0,.04.248c0.01,0.061.02,0.123,0.03,0.183l0.06,0.271,0.03,0.148c0.03,0.132.06,0.262,0.09,0.392l0.03,0.152a2.664,2.664,0,0,1,.07.261c0.02,0.056.03,0.111,0.05,0.166,0.02,0.086.05,0.172,0.07,0.258,0.01,0.048.03,0.1,0.04,0.146,0.04,0.128.08,0.254,0.12,0.38a0.5,0.5,0,0,1,.04.109c0.03,0.095.07,0.189,0.1,0.283a0.86,0.86,0,0,1,.05.148c0.04,0.083.07,0.166,0.1,0.248a0.793,0.793,0,0,1,.05.141c0.05,0.1.09,0.209,0.13,0.313a0.274,0.274,0,0,0,.04.075c0.05,0.117.1,0.232,0.15,0.347l0.06,0.127q0.06,0.123.12,0.243a0.843,0.843,0,0,0,.07.132c0.04,0.087.09,0.174,0.13,0.26,0.02,0.032.03,0.064,0.05,0.1a0.016,0.016,0,0,1,.01.017m3.37-42.879a3.053,3.053,0,0,1,3.26-1.471,1,1,0,0,0,.76-0.154,1.043,1.043,0,0,0,.43-0.656,2.988,2.988,0,0,1,.36-1,3.058,3.058,0,0,1,4.15-1.134,2.992,2.992,0,0,1,1.48,2.2,0.971,0.971,0,0,0,.88.847,2.99,2.99,0,0,1,2.71,2.647v0.016a0.5,0.5,0,0,1,.01.121,0.043,0.043,0,0,0,.01.033v0.3a0.146,0.146,0,0,1-.01.064v0.118a4.109,4.109,0,0,1-.13.6,0.026,0.026,0,0,1-.01.024l-0.03.1c0,0.013-.01.026-0.01,0.039a0.318,0.318,0,0,1-.04.086,0.112,0.112,0,0,1-.02.053l-0.03.073a0.26,0.26,0,0,1-.04.072c-0.01.018-.01,0.037-0.02,0.055a0.848,0.848,0,0,0-.07.127c-0.04.062-.08,0.122-0.12,0.181a0.055,0.055,0,0,1-.02.031c-0.04.056-.08,0.11-0.12,0.163a0.058,0.058,0,0,0-.02.031c-0.05.054-.09,0.107-0.14,0.157,0,0-.01.006-0.01,0.009-0.05.049-.09,0.1-0.14,0.142l-0.03.023c-0.05.046-.1,0.089-0.15,0.131-0.01.009-.03,0.017-0.04,0.025-0.05.042-.11,0.082-0.16,0.12-0.01,0-.01.008-0.02,0.012-0.06.036-.11,0.07-0.17,0.1l-0.03.016a1.886,1.886,0,0,1-.18.093,0.038,0.038,0,0,1-.02.008,0.169,0.169,0,0,0-.04-0.015,0.848,0.848,0,0,0-.1-0.038s0,0-.01,0a8.055,8.055,0,0,0-3.12-.478,27.147,27.147,0,0,0-1.27-3.911,0.983,0.983,0,0,0-1.3-.524,1,1,0,0,0-.54,1.308,25.65,25.65,0,0,1,1.14,3.455c-0.08.022-.15,0.046-0.23,0.071-0.01,0-.01,0-0.02.006q-0.255.086-.51,0.188c-0.02.006-.03,0.012-0.05,0.018-0.06.027-.13,0.056-0.2,0.085l-0.06.029c-0.07.029-.13,0.059-0.19,0.09a0.239,0.239,0,0,0-.05.023q-0.105.053-.21,0.108a13.382,13.382,0,0,0-1.86-1.68,0.094,0.094,0,0,1-.01-0.01q-0.18-.129-0.36-0.252l-0.09-.063c-0.1-.067-0.2-0.132-0.3-0.2-0.03-.022-0.07-0.045-0.1-0.067-0.13-.081-0.26-0.161-0.4-0.238a1,1,0,0,0-1.36.372l-0.57.979a3.035,3.035,0,0,1-.46-3.666m-15.72,35.718-0.09-.045,17.44-30.07,0.59-1.023c0.1,0.071.2,0.143,0.3,0.217,0.03,0.023.06,0.048,0.09,0.072,0.07,0.05.13,0.1,0.2,0.154,0.04,0.029.07,0.059,0.11,0.089,0.05,0.049.11,0.1,0.17,0.148,0.04,0.032.07,0.064,0.11,0.1,0.06,0.051.11,0.1,0.17,0.153,0.03,0.033.07,0.065,0.1,0.1,0.06,0.056.12,0.112,0.17,0.168l0.09,0.091c0.08,0.082.16,0.164,0.24,0.248a0.265,0.265,0,0,1,.05.06l0.21,0.229,0.09,0.107c0.04,0.059.09,0.118,0.14,0.179,0.02,0.027.05,0.055,0.07,0.083,0.09,0.111.17,0.223,0.25,0.338,0.01,0.007.01,0.013,0.02,0.02,0.09,0.126.18,0.253,0.27,0.383a0.073,0.073,0,0,0,.02.039c0.08,0.122.16,0.247,0.24,0.373a0.048,0.048,0,0,0,.02.027q0.12,0.2.24,0.416a0.012,0.012,0,0,0,.01.013q0.1,0.2.21,0.412c0.01,0.011.01,0.022,0.02,0.033,0.14,0.288.28,0.584,0.41,0.887,0,0.012.01,0.024,0.01,0.036,0.13,0.3.24,0.615,0.34,0.932,0.01,0.011.01,0.023,0.02,0.035,0.1,0.32.19,0.646,0.28,0.979a0.03,0.03,0,0,0,.01.026c0.08,0.337.15,0.68,0.22,1.029v0.012q0.09,0.53.15,1.075s0,0,.01.006c0.02,0.182.03,0.366,0.05,0.551a20.743,20.743,0,0,1-2,10.312,0.024,0.024,0,0,0-.01.022c-0.06.114-.11,0.228-0.17,0.341l-0.03.067-0.15.3-0.06.118c-0.04.084-.09,0.167-0.13,0.249-0.03.063-.07,0.125-0.1,0.187s-0.07.122-.1,0.182l-0.21.372c-0.07.124-.15,0.246-0.22,0.368-0.04.059-.07,0.118-0.11,0.177s-0.07.121-.11,0.181l-0.15.236a0.687,0.687,0,0,0-.07.112c-0.06.093-.13,0.186-0.19,0.278-0.01.021-.03,0.041-0.04,0.061-0.07.1-.14,0.209-0.22,0.312a0.019,0.019,0,0,1-.01.019,20.951,20.951,0,0,1-7.97,6.88h0a13.147,13.147,0,0,1-10.99.555s0,0-.01,0m17.46,10.035a0.868,0.868,0,0,1-.1-0.076l-0.18-.131c-0.03-.027-0.07-0.054-0.1-0.082-0.06-.045-0.12-0.09-0.17-0.136a0.787,0.787,0,0,1-.1-0.083l-0.18-.15-0.09-.077c-0.07-.064-0.14-0.131-0.21-0.2-0.01-.012-0.03-0.023-0.04-0.036-0.08-.079-0.17-0.16-0.25-0.243l-0.06-.071q-0.09-.088-0.18-0.18a0.734,0.734,0,0,0-.08-0.1c-0.05-.055-0.1-0.109-0.15-0.165l-0.09-.1c-0.04-.055-0.09-0.11-0.14-0.166a0.8,0.8,0,0,0-.08-0.107c-0.05-.058-0.09-0.116-0.14-0.176a0.844,0.844,0,0,0-.08-0.1c-0.05-.067-0.1-0.136-0.15-0.2-0.02-.026-0.03-0.053-0.05-0.08-0.07-.1-0.14-0.194-0.2-0.293l-0.03-.037c-0.05-.087-0.11-0.174-0.17-0.263-0.02-.033-0.03-0.066-0.05-0.1a2.253,2.253,0,0,1-.13-0.21c-0.02-.037-0.04-0.076-0.06-0.114l-0.12-.2-0.06-.119c-0.04-.069-0.07-0.139-0.11-0.21l-0.06-.115a2.569,2.569,0,0,0-.11-0.233c-0.01-.032-0.03-0.064-0.04-0.1-0.05-.106-0.1-0.214-0.15-0.322V214.57c-0.05-.116-0.1-0.234-0.15-0.352a0.172,0.172,0,0,0-.02-0.067c-0.04-.094-0.07-0.188-0.11-0.284l-0.03-.1-0.09-.254a0.515,0.515,0,0,1-.04-0.116c-0.03-.084-0.05-0.168-0.08-0.253l-0.03-.116a2.6,2.6,0,0,1-.08-0.27l-0.03-.1c-0.03-.109-0.05-0.219-0.08-0.329,0-.015-0.01-0.03-0.01-0.045-0.06-.259-0.12-0.522-0.17-0.788,0-.023-0.01-0.047-0.01-0.07L1214,211.1c0-.033-0.01-0.066-0.01-0.1-0.02-.1-0.03-0.2-0.05-0.3a0.374,0.374,0,0,0-.01-0.105c0-.044-0.01-0.087-0.01-0.131a23.1,23.1,0,0,0,8.41-7.662c0.01-.006.01-0.011,0.02-0.017,0.06-.1.13-0.206,0.2-0.31,0.02-.036.05-0.073,0.07-0.109,0.05-.082.11-0.165,0.16-0.248l0.12-.2a1.617,1.617,0,0,0,.11-0.178q0.12-.2.24-0.4c0.07-.132.15-0.265,0.22-0.4a1.665,1.665,0,0,0,.1-0.184l0.12-.206c0.04-.087.09-0.174,0.13-0.261l0.06-.115c0.06-.11.12-0.221,0.17-0.332,0-.006.01-0.012,0.01-0.018a22.93,22.93,0,0,0,2.46-11.087c0.09-.04.19-0.081,0.28-0.12,0.02-.006.03-0.012,0.05-0.018,0.14-.057.28-0.11,0.42-0.162l0.12-.045c0.1-.037.21-0.073,0.31-0.108,0.05-.015.09-0.031,0.14-0.046q0.2-.066.39-0.126l0.15-.041c0.09-.025.17-0.05,0.26-0.074l0.21-.054,0.18-.045q0.45-.109.9-0.189l0.02,0a12.112,12.112,0,0,1,6.43.542c0.01,0.006.03,0.012,0.04,0.018,0.09,0.032.17,0.066,0.25,0.1,0.05,0.022.11,0.045,0.16,0.068s0.11,0.046.16,0.07l-1.22,2.11L1218.95,219.6c-0.02-.012-0.03-0.023-0.05-0.035m10.8-38.981,0.06,0.037,0.12,0.078c0.02,0.015.05,0.031,0.07,0.046s0.07,0.05.1,0.075a0.423,0.423,0,0,1,.07.05,0.87,0.87,0,0,1,.1.077,0.425,0.425,0,0,1,.07.053c0.03,0.027.07,0.054,0.1,0.082l0.06,0.051c0.04,0.031.07,0.063,0.11,0.095a0.252,0.252,0,0,0,.05.044c0.05,0.046.1,0.094,0.15,0.142a0.039,0.039,0,0,0,.02.023l0.12,0.125c0.02,0.018.03,0.036,0.05,0.055l0.09,0.1a0.26,0.26,0,0,1,.05.064,0.615,0.615,0,0,1,.08.094l0.06,0.067c0.02,0.031.05,0.063,0.07,0.1a0.291,0.291,0,0,1,.05.067c0.03,0.034.05,0.068,0.08,0.1,0.01,0.022.03,0.043,0.04,0.065a0.812,0.812,0,0,1,.08.117c0.01,0.018.03,0.036,0.04,0.054,0.04,0.057.07,0.114,0.11,0.172,0.01,0.015.01,0.031,0.02,0.046,0.03,0.044.05,0.087,0.08,0.131a0.251,0.251,0,0,0,.04.07,0.543,0.543,0,0,1,.05.111,0.284,0.284,0,0,1,.04.077,0.506,0.506,0,0,1,.05.109,0.28,0.28,0,0,1,.04.079c0.02,0.036.03,0.073,0.05,0.109l0.03,0.08c0.02,0.039.03,0.077,0.05,0.116l0.03,0.076c0.02,0.045.03,0.091,0.05,0.136a0.13,0.13,0,0,0,.02.057l0.06,0.194a0.146,0.146,0,0,0,.02.061l0.03,0.137a0.236,0.236,0,0,1,.02.079l0.03,0.122c0.01,0.029.01,0.057,0.02,0.086a0.478,0.478,0,0,1,.02.118,0.274,0.274,0,0,1,.02.087c0.01,0.04.01,0.08,0.02,0.121s0.01,0.057.01,0.085,0.01,0.086.02,0.129c0,0.026.01,0.052,0.01,0.078,0,0.053.01,0.107,0.01,0.16,0,0.016.01,0.032,0.01,0.048,0,0.066.01,0.132,0.01,0.2a15.237,15.237,0,0,0-2.49.161l-0.06.009c-0.12.018-.24,0.038-0.36,0.058l-0.1.018c-0.11.019-.21,0.04-0.32,0.062l-0.12.024c-0.11.022-.22,0.046-0.33,0.071-0.03.008-.07,0.016-0.11,0.025-0.14.032-.27,0.066-0.41,0.1-0.06.018-.13,0.036-0.2,0.055s-0.14.04-.22,0.061-0.14.044-.22,0.066c-0.06.02-.13,0.041-0.2,0.063s-0.15.047-.22,0.071l-0.21.07q-0.1.036-.21,0.075c-0.07.026-.15,0.053-0.22,0.08s-0.13.05-.2,0.076c-0.01,0-.03.01-0.04,0.016a0.039,0.039,0,0,1-.01-0.031q-0.03-.2-0.06-0.4a0.048,0.048,0,0,1-.01-0.035,15.641,15.641,0,0,0-2.33-5.979,6.186,6.186,0,0,1,4.69-.185,0.53,0.53,0,0,1,.07.026c0.11,0.042.22,0.086,0.32,0.134a0.016,0.016,0,0,1,.01,0c0.09,0.04.17,0.082,0.26,0.126l0.01,0.007c0.09,0.043.17,0.088,0.25,0.134,0.06,0.036.12,0.072,0.18,0.11m13.05,9.006a5.432,5.432,0,0,0-.06-5.585,5.785,5.785,0,0,0,.55-0.783,5.405,5.405,0,0,0-1.95-7.413,5.374,5.374,0,0,1-5.26-1.514,5.328,5.328,0,0,0-3.17-.691,4.949,4.949,0,0,0-2.15-2.5,4.846,4.846,0,0,0-1.3-.52,4.91,4.91,0,0,0-2.28-2.913,5.067,5.067,0,0,0-6.88,1.878,6.569,6.569,0,0,0-.35.739,5.061,5.061,0,0,0-3.3,8.959l-17.5,30.16a0.984,0.984,0,0,0,.36,1.359l19.32,11.1a1,1,0,0,0,1.36-.372l16.97-29.238a5.5,5.5,0,0,0,5.64-2.667" transform="translate(-1198.97 -167)"/>
</svg>
