<svg 
 xmlns="http://www.w3.org/2000/svg"
 xmlns:xlink="http://www.w3.org/1999/xlink"
 width="13px" height="22px">
<path fill-rule="evenodd"  fill="rgb(255, 255, 255)"
 d="M10.622,22.006 L2.378,22.006 C1.065,22.006 -0.000,20.910 -0.000,19.558 L-0.000,2.447 C-0.000,1.096 1.065,-0.000 2.378,-0.000 L10.622,-0.000 C11.935,-0.000 13.000,1.096 13.000,2.447 L13.000,19.558 C13.000,20.910 11.935,22.006 10.622,22.006 ZM11.689,2.447 C11.689,1.841 11.211,1.349 10.622,1.349 L2.378,1.349 C1.789,1.349 1.311,1.841 1.311,2.447 L1.311,3.486 L11.689,3.486 L11.689,2.447 ZM11.689,4.836 L1.311,4.836 L1.311,16.157 L11.689,16.157 L11.689,4.836 ZM11.689,17.507 L1.311,17.507 L1.311,19.558 C1.311,20.165 1.789,20.656 2.378,20.656 L10.622,20.656 C11.211,20.656 11.689,20.165 11.689,19.558 L11.689,17.507 ZM6.500,20.058 C5.896,20.058 5.407,19.554 5.407,18.933 C5.407,18.312 5.896,17.808 6.500,17.808 C7.103,17.808 7.593,18.312 7.593,18.933 C7.593,19.554 7.103,20.058 6.500,20.058 ZM2.708,9.632 L5.873,6.375 C6.108,6.198 6.428,6.201 6.660,6.383 C6.947,6.610 7.002,7.033 6.782,7.329 L3.617,10.586 C3.361,10.849 2.946,10.849 2.690,10.586 C2.440,10.318 2.447,9.891 2.708,9.632 ZM3.538,12.782 L7.910,8.283 C7.920,8.271 7.931,8.260 7.943,8.249 C8.207,7.995 8.622,8.010 8.869,8.283 C9.116,8.555 9.101,8.983 8.837,9.237 L4.465,13.735 C4.209,13.998 3.794,13.998 3.538,13.735 C3.283,13.472 3.283,13.045 3.538,12.782 Z"/>
</svg>