<svg xmlns="http://www.w3.org/2000/svg" width="18.562" height="15.344" viewBox="0 0 18.562 15.344">
  <defs>
    <style>
      .twitter {
        fill: #222c51;
        fill-rule: evenodd;
      }
    </style>
  </defs>
  <path class="twitter" d="M707.992,74.587a7.492,7.492,0,0,1-2.187.612,3.881,3.881,0,0,0,1.674-2.147,7.583,7.583,0,0,1-2.417.942,3.766,3.766,0,0,0-2.778-1.226,3.844,3.844,0,0,0-3.807,3.881,3.976,3.976,0,0,0,.1.885,10.746,10.746,0,0,1-7.846-4.055,3.932,3.932,0,0,0,1.178,5.18,3.732,3.732,0,0,1-1.724-.486c0,0.016,0,.032,0,0.049a3.866,3.866,0,0,0,3.054,3.805,3.734,3.734,0,0,1-1,.135,3.652,3.652,0,0,1-.716-0.069,3.817,3.817,0,0,0,3.556,2.694,7.545,7.545,0,0,1-4.728,1.663,7.406,7.406,0,0,1-.908-0.056,10.624,10.624,0,0,0,5.835,1.745c7,0,10.83-5.913,10.83-11.041,0-.168,0-0.336-0.01-0.5A7.832,7.832,0,0,0,707.992,74.587Z" transform="translate(-689.438 -72.781)"/>
</svg>
