<svg xmlns="http://www.w3.org/2000/svg" width="22.469" height="13.406" viewBox="0 0 22.469 13.406">
  <defs>
    <style>
      .vk {
        fill: #222c51;
        fill-rule: evenodd;
        opacity: 0.5;
      }
    </style>
  </defs>
  <path class="vk" d="M662.934,80.324s2.959-4.253,3.253-5.65a0.571,0.571,0,0,0-.627-0.779h-2.567a0.937,0.937,0,0,0-.98.639,23.762,23.762,0,0,1-3.077,4.911,1.675,1.675,0,0,1-1.117.8c-0.242,0-.353-0.205-0.353-0.759V74.634c0-.679-0.079-0.879-0.627-0.879h-4.116a0.453,0.453,0,0,0-.51.439c0,0.639.961,0.784,0.961,2.516v3.574c0,0.719-.039,1-0.373,1-0.882,0-2.979-3.095-4.155-6.608a1.028,1.028,0,0,0-1.156-.919h-2.567a0.618,0.618,0,0,0-.647.638c0,0.7.8,3.934,3.959,8.266,2.116,2.915,4.9,4.493,7.408,4.493,1.529,0,1.9-.259,1.9-0.918V84c0-.559.216-0.8,0.529-0.8,0.353,0,.976.115,2.431,1.577,1.724,1.677,1.842,2.376,2.783,2.376h2.881a0.539,0.539,0,0,0,.568-0.639c0-.659-0.843-1.837-2.136-3.234-0.529-.719-1.392-1.5-1.666-1.857A0.729,0.729,0,0,1,662.934,80.324Z" transform="translate(-644.281 -73.75)"/>
</svg>
