<svg xmlns="http://www.w3.org/2000/svg" width="59" height="43" viewBox="0 0 59 43">
  <defs>
    <style>
      .cls-1 {
        fill: #fff;
        fill-rule: evenodd;
        opacity: 0.3;
      }
    </style>
  </defs>
  <path class="cls-1" d="M1064.5,174c-14.63,0-23.36,5.884-24.64,16.566a3.334,3.334,0,0,0,.19,1.539h-1.51a3.4,3.4,0,1,0,0,6.79h1.18v2.263h-1.18a3.4,3.4,0,1,0,0,6.789h1.18v3.4a5.783,5.783,0,0,0,5.9,5.658h37.76a5.783,5.783,0,0,0,5.9-5.658v-3.4h1.18a3.4,3.4,0,1,0,0-6.789h-1.18V198.9h1.18a3.4,3.4,0,1,0,0-6.79h-1.51a3.334,3.334,0,0,0,.19-1.539C1087.86,179.884,1079.13,174,1064.5,174Zm0,2.263c17.04,0,21.52,7.921,22.28,14.574a1.094,1.094,0,0,1-.29.906,1.205,1.205,0,0,1-.89.362h-42.2a1.335,1.335,0,0,1-.9-0.362,1.032,1.032,0,0,1-.28-0.906C1042.98,184.184,1047.46,176.263,1064.5,176.263Zm-10.86,3.032a1.722,1.722,0,1,0,1.8,1.721A1.755,1.755,0,0,0,1053.64,179.3Zm27.85,5.432a1.722,1.722,0,1,0,1.8,1.72A1.755,1.755,0,0,0,1081.49,184.727Zm-23.13,1.358a1.722,1.722,0,1,0,1.8,1.72A1.755,1.755,0,0,0,1058.36,186.085Zm-9.44.905a1.722,1.722,0,1,0,1.8,1.72A1.755,1.755,0,0,0,1048.92,186.99Zm-10.38,7.378h51.92a1.132,1.132,0,1,1,0,2.263h-51.92A1.132,1.132,0,1,1,1038.54,194.368Zm3.54,4.527h44.84v2.263h-44.84V198.9Zm-3.54,4.526h51.92a1.132,1.132,0,1,1,0,2.263h-51.92A1.132,1.132,0,1,1,1038.54,203.421Zm3.54,4.526h44.84v3.4a3.492,3.492,0,0,1-3.54,3.395h-37.76a3.492,3.492,0,0,1-3.54-3.395v-3.4Z" transform="translate(-1035 -174)"/>
</svg>
