<svg xmlns="http://www.w3.org/2000/svg" width="19" height="19" viewBox="0 0 19 19">
<defs>
    <style>
      .clip-svg {
        fill: #792376;
        fill-rule: evenodd;
      }
    </style>
  </defs>
  <path class="clip-svg" d="M566.079,581.368a0.936,0.936,0,0,0,.914.913h0a0.876,0.876,0,0,0,.64-0.274,4.693,4.693,0,0,0-6.64-6.635l-9.623,9.618a4.693,4.693,0,0,0,6.639,6.636l6.517-6.514,0.031-.03a2.819,2.819,0,0,0-.122-3.835,2.786,2.786,0,0,0-1.98-.822h0a2.783,2.783,0,0,0-1.979.822l-5.36,5.357a0.882,0.882,0,0,0,0,1.278,0.939,0.939,0,0,0,1.279,0l5.36-5.357a1.033,1.033,0,0,1,1.4,0,0.973,0.973,0,0,1,0,1.4l-6.426,6.423a2.884,2.884,0,0,1-2.041.852h0a2.884,2.884,0,0,1-2.04-4.931l9.624-9.619a2.885,2.885,0,1,1,4.08,4.079A0.831,0.831,0,0,0,566.079,581.368Z" transform="translate(-550 -574)"/>
</svg>
