<svg xmlns="http://www.w3.org/2000/svg" width="55.03" height="34" viewBox="0 0 55.03 34">
  <defs>
    <style>
      .cls-1 {
        fill: #fff;
        fill-rule: evenodd;
        opacity: 0.3;
      }
    </style>
  </defs>
  <path class="cls-1" d="M1386.25,207.384c-0.18-.12-0.34-0.2-0.51-0.3v-4.13c0-.031-0.01-0.057-0.01-0.087a0.335,0.335,0,0,1,0-.1c-0.01-.049-0.04-0.09-0.05-0.137a0.754,0.754,0,0,0-.08-0.2,0.279,0.279,0,0,0-.03-0.085v0l-9.04-14.615a8.363,8.363,0,0,0-8.12-3.6l-32.2,6.1c-0.04.008-.07,0.035-0.11,0.047a1.034,1.034,0,0,0-.2.075,0.931,0.931,0,0,0-.09.044c-0.04.025-.07,0.06-0.11,0.089a0.962,0.962,0,0,0-.14.138c-0.02.028-.05,0.049-0.07,0.078a0.612,0.612,0,0,0-.06.12,1.355,1.355,0,0,0-.09.193c-0.01.031-.03,0.055-0.04,0.087,0,0,.01.007,0,0.01a0.637,0.637,0,0,0,0,.138,0.523,0.523,0,0,0-.03.121V195.1a5.223,5.223,0,0,0-.98.747,3.629,3.629,0,0,0-1,4.242,2.2,2.2,0,0,0,1.98,1.614v3.567c0,0.033.02,0.061,0.02,0.094a1.741,1.741,0,0,0,.05.23,1.325,1.325,0,0,0,.07.2c0.04,0.066.08,0.124,0.12,0.182a2.152,2.152,0,0,0,.15.161,1.447,1.447,0,0,0,.39.219c0.03,0.01.05,0.033,0.08,0.041l48.18,11.592a1.22,1.22,0,0,0,.13,0,1.381,1.381,0,0,0,.14.027c0.03,0,.06-0.017.09-0.02a1.1,1.1,0,0,0,.23-0.046,1.258,1.258,0,0,0,.2-0.076,1.588,1.588,0,0,0,.18-0.122,2.177,2.177,0,0,0,.16-0.149,1.1,1.1,0,0,0,.11-0.178,0.862,0.862,0,0,0,.1-0.213c0.01-.031.03-0.055,0.04-0.087s0-.09.01-0.136,0.02-.085.02-0.133V213.7a2.616,2.616,0,0,0,1.58-1.161A3.594,3.594,0,0,0,1386.25,207.384Zm-48.68-14.56,45.88,11.041v2.254l-45.88-11.041v-2.254Zm31.27-6.431a6.107,6.107,0,0,1,5.75,2.556l7.55,12.218-40.21-9.675Zm-1.63,22.666c0.16,0.145,1.26,1.169,1.55,1.418a5.4,5.4,0,0,0,1.66,1.058c0.91,0.318,1.62.3,4.3,0.039,0.91-.086,1.45-0.13,2.03-0.155a10.785,10.785,0,0,1,2.71.155,10.191,10.191,0,0,1,2.3.84c0.66,0.316,1.2.559,1.69,0.764v2.215l-45.88-11.041V201.66c0.13-.011.25-0.018,0.4-0.031a14.745,14.745,0,0,1,4.27.086,5.542,5.542,0,0,1,.93.936c0.98,1.085,1.48,1.51,2.31,1.657a6.491,6.491,0,0,0,3.01-.343c0.25-.065.35-0.091,0.49-0.124a4.46,4.46,0,0,1,1.66-.183c0.64,0.1,1.14.487,2.17,1.619l0.12,0.129c1.46,1.6,2.29,2.254,3.72,2.469a11.826,11.826,0,0,0,4.04-.363,13.155,13.155,0,0,1,3.31-.417C1364.86,207.17,1365.81,207.774,1367.21,209.059Zm18.34,2c-0.32.4-.48,0.361-2.82-0.749a12.22,12.22,0,0,0-2.79-1.009,12.978,12.978,0,0,0-3.29-.2c-0.62.028-1.2,0.074-2.14,0.164-2.19.209-2.9,0.232-3.34,0.078-0.39-.136-0.31-0.073-2.39-1.98-1.78-1.631-3.05-2.446-4.59-2.579a13.4,13.4,0,0,0-3.79.424,11.288,11.288,0,0,1-3.41.373c-0.73-.11-1.26-0.525-2.37-1.745l-0.12-.129c-1.38-1.515-2.18-2.143-3.52-2.344a6.429,6.429,0,0,0-2.54.222c-0.15.036-.26,0.066-0.52,0.131a5.1,5.1,0,0,1-2.04.307,3.6,3.6,0,0,1-1.01-.933c-1.07-1.2-1.43-1.515-2.23-1.659a16.815,16.815,0,0,0-4.87-.113c-1.98.175-2.25,0.136-2.37-.134a1.376,1.376,0,0,1,.47-1.658,3.282,3.282,0,0,1,.45-0.365l47.25,11.368a0.882,0.882,0,0,0,.22.141,5.98,5.98,0,0,1,1.16.626C1385.9,209.954,1386.08,210.41,1385.55,211.064Z" transform="translate(-1332.97 -184.031)"/>
</svg>
