<svg xmlns="http://www.w3.org/2000/svg" width="52" height="49" viewBox="0 0 52 49">
  <defs>
    <style>
      .cls-1 {
        fill: #fff;
        fill-rule: evenodd;
        opacity: 0.3;
      }
    </style>
  </defs>
  <path id="Фигура_12" data-name="Фигура 12" class="cls-1" d="M1546.71,181.291a1.031,1.031,0,0,0-1.46,0l-3.66,3.669-1.09-1.1a3.707,3.707,0,0,0-5.12,0,3.621,3.621,0,0,0,0,5.12l0.31,0.31h-5.24a2.077,2.077,0,0,0-2.07,2.073v4.6a6.166,6.166,0,0,0-6.52,1.44,6.232,6.232,0,0,0-1.64,5.794,3.734,3.734,0,0,0-4.57.435,3.621,3.621,0,0,0,0,5.12l0.31,0.311h-5.24a2.077,2.077,0,0,0-2.07,2.072v4.612a3.705,3.705,0,0,0-5.11.011,3.658,3.658,0,0,0,0,5.13l1.1,1.1-3.12,3.129a0.9,0.9,0,0,0-.23.342,1.07,1.07,0,0,0-.08.394,2.07,2.07,0,1,1-2.07-2.073,1.036,1.036,0,0,0,0-2.072,4.146,4.146,0,1,0,4.08,4.622l2.87-2.871,1.09,1.1a3.616,3.616,0,0,0,5.11,0,3.655,3.655,0,0,0,.01-5.12h4.6a2.083,2.083,0,0,0,2.07-2.073v-5.254l0.31,0.311a3.581,3.581,0,0,0,2.56,1.057,3.541,3.541,0,0,0,2.55-1.057,3.64,3.64,0,0,0,.46-4.561,5.935,5.935,0,0,0,1.36.156,6.108,6.108,0,0,0,4.38-1.824,6.225,6.225,0,0,0,1.44-6.54h4.59a2.076,2.076,0,0,0,2.07-2.072v-5.255l0.31,0.311a3.581,3.581,0,0,0,2.56,1.057,3.541,3.541,0,0,0,2.55-1.057,3.639,3.639,0,0,0,0-5.13l-1.09-1.1,3.66-3.669A1,1,0,0,0,1546.71,181.291Zm-35.86,41.819a1.6,1.6,0,0,1-2.19,0l-3.66-3.669a1.566,1.566,0,0,1,0-2.2,1.547,1.547,0,0,1,1.1-.456,1.5,1.5,0,0,1,1.09.456l3.66,3.669A1.566,1.566,0,0,1,1510.85,223.11Zm6.07-5.732h-6.2V211.16h6.2v6.218Zm6.04-6.415a1.606,1.606,0,0,1-2.2,0l-3.66-3.668a1.567,1.567,0,0,1,0-2.2,1.555,1.555,0,0,1,2.2,0l3.66,3.669A1.585,1.585,0,0,1,1522.96,210.963Zm6.21-6.228a4.231,4.231,0,0,1-5.85,0,4.148,4.148,0,0,1,0-5.866,4.137,4.137,0,0,1,5.22-.519,2.041,2.041,0,0,0,1.14,1.151,4.063,4.063,0,0,1,.7,2.3A4.119,4.119,0,0,1,1529.17,204.735Zm7.48-7.151h-5.86a0.915,0.915,0,0,0-.17-0.177c-0.05-.051-0.11-0.1-0.17-0.165v-5.877h6.2v6.219Zm6.04-6.405a1.6,1.6,0,0,1-2.19,0l-3.66-3.669a1.542,1.542,0,0,1,0-2.2,1.543,1.543,0,0,1,2.19,0l3.66,3.669A1.548,1.548,0,0,1,1542.69,191.179Z" transform="translate(-1495 -181)"/>
</svg>
