<?xml version="1.0" standalone="no"?>
<!DOCTYPE svg PUBLIC "-//W3C//DTD SVG 20010904//EN"
 "http://www.w3.org/TR/2001/REC-SVG-20010904/DTD/svg10.dtd">
<svg version="1.0" xmlns="http://www.w3.org/2000/svg"
 width="200.000000pt" height="200.000000pt" viewBox="0 0 200.000000 200.000000"
 preserveAspectRatio="xMidYMid meet">
<metadata>
Created by potrace 1.11, written by Peter Selinger 2001-2013
</metadata>
<g transform="translate(0.000000,200.000000) scale(0.100000,-0.100000)"
fill="#000000" stroke="none">
<path d="M890 1947 c-3 -2 -25 -7 -50 -10 -269 -34 -544 -231 -682 -487 -32
-60 -78 -177 -78 -200 0 -5 16 0 36 12 49 29 125 28 181 -1 33 -16 43 -18 43
-8 0 20 57 125 94 172 240 310 668 368 981 132 91 -68 166 -160 205 -252 12
-27 22 -51 24 -52 1 -1 24 6 52 16 61 23 113 19 170 -13 24 -14 44 -23 44 -22
0 18 -58 165 -86 215 -138 254 -373 427 -659 486 -40 9 -269 18 -275 12z"/>
<path d="M855 1516 c-161 -40 -255 -158 -250 -311 6 -161 122 -258 335 -280
118 -12 146 -17 187 -35 103 -45 88 -184 -24 -218 -58 -18 -181 -10 -229 15
-42 22 -74 60 -74 88 0 12 -17 15 -106 15 l-107 0 6 -45 c18 -128 121 -225
281 -264 55 -14 208 -13 270 1 164 36 261 141 265 288 6 205 -102 294 -394
324 -107 11 -151 28 -179 68 -35 49 -8 125 54 155 104 49 248 13 280 -72 8
-22 13 -23 107 -22 l98 2 -3 44 c-6 87 -61 169 -143 211 -91 47 -262 64 -374
36z"/>
<path d="M149 1122 c-19 -10 -44 -32 -56 -51 -57 -85 7 -204 110 -204 79 0
136 53 139 130 3 99 -105 169 -193 125z"/>
<path d="M1699 1117 c-65 -43 -86 -124 -49 -184 26 -43 62 -65 108 -67 108 -2
174 98 128 195 -32 69 -126 97 -187 56z"/>
<path d="M1864 743 c-55 -31 -108 -35 -169 -12 -27 11 -51 19 -52 19 -1 0 -7
-15 -13 -34 -25 -78 -123 -201 -220 -279 -56 -45 -190 -106 -271 -123 -285
-60 -565 53 -727 293 -21 32 -47 77 -57 101 -21 47 -24 48 -68 26 -45 -24
-114 -22 -165 3 -23 11 -42 17 -42 12 0 -22 46 -141 78 -199 197 -362 593
-555 995 -485 286 50 530 226 671 486 31 57 91 209 83 214 -1 1 -21 -9 -43
-22z"/>
</g>
</svg>
